<svg th:fragment="face" width="100" height="75" viewBox="0 0 100 75" fill="none" xmlns="http://www.w3.org/2000/svg"><path fill-rule="evenodd" clip-rule="evenodd" d="M82.3614 41.0488C81.463 50.751 81.9589 61.4081 74.5111 67.7036C66.8742 74.1589 56.0174 73.7223 46.2449 71.5772C36.3488 69.4051 27.0703 64.8045 21.8361 56.1416C15.9163 46.3439 12.3802 34.1093 17.388 23.817C22.3818 13.5534 34.4839 10.3218 45.5381 7.42822C57.261 4.35955 71.1512 -0.763551 80.095 7.40236C88.8358 15.3829 83.4519 29.2726 82.3614 41.0488Z" fill="#9BCBEB"/><circle cx="50" cy="38" r="23.5" fill="white" stroke="black" stroke-width="3"/><circle cx="42" cy="37" r="3" fill="black"/><circle cx="57" cy="37" r="3" fill="black"/><path d="M56.3218 29.3882C47.5 25.0788 43.5 16.4999 43.5 16.4999C43.5 16.4999 45 22.4705 39.1264 27.6588C33.2529 32.847 28 33.9999 28 33.9999C28 33.9999 29.9258 26.02 33.0575 22.4705C36.315 18.7784 43.5 16.4999 43.5 16.4999C43.5 16.4999 53.2874 12.6705 61.8851 17.8587C70.4828 23.0469 72 32.2704 72 32.2704C72 32.2704 65.1437 33.6975 56.3218 29.3882Z" fill="black"/><path d="M43.5 16.4999C43.5 16.4999 47.5 25.0788 56.3218 29.3882C65.1437 33.6975 72 32.2704 72 32.2704C72 32.2704 70.4828 23.0469 61.8851 17.8587C53.2874 12.6705 43.5 16.4999 43.5 16.4999ZM43.5 16.4999C43.5 16.4999 45 22.4705 39.1264 27.6588C33.2529 32.847 28 33.9999 28 33.9999C28 33.9999 29.9258 26.02 33.0575 22.4705C36.315 18.7784 43.5 16.4999 43.5 16.4999Z" stroke="black"/></svg>