<svg th:fragment="school" aria-hidden="true" width="100" height="75" viewBox="0 0 100 75" fill="none" xmlns="http://www.w3.org/2000/svg"><g clip-path="url(#clip0_1:1018)"><path fill-rule="evenodd" clip-rule="evenodd" d="M48.0511 1.0075C54.2782 1.12712 59.9336 3.72517 65.5026 6.49109C71.6785 9.55841 79.4731 11.6625 82.1872 17.9616C84.9 24.2576 80.0384 31.0673 79.0088 37.8375C77.9884 44.5473 79.6781 51.7601 76.1623 57.5813C72.3806 63.8427 66.3388 69.4059 59.1115 70.7817C52.0196 72.1317 45.6741 66.867 38.7929 64.6948C32.1036 62.5832 24.1256 63.1812 19.2292 58.1922C14.2732 53.1424 12.8944 45.4664 13.0062 38.4203C13.1089 31.9485 16.8063 26.377 19.825 20.6385C22.6851 15.2016 25.0973 9.33304 30.1597 5.81216C35.323 2.22116 41.746 0.886381 48.0511 1.0075Z" fill="#9BCBEB"/><path d="M86.9998 54.8765L79.4472 47.1409L71.8945 54.8765V74H86.9998V54.8765Z" fill="#FFF7E3" stroke="black" stroke-width="3" stroke-miterlimit="10" stroke-linecap="round" stroke-linejoin="round"/><path d="M82.9648 64.3665C82.9648 62.3967 81.5615 61.8324 80.051 61.5144L79.2519 61.3502C78.063 61.1143 77.9752 60.7757 77.9752 60.3243C77.9752 59.7293 78.5112 59.3804 79.4175 59.3804C80.4895 59.3804 80.7623 59.9139 80.8695 60.314L80.8793 60.3448C81.0157 60.6936 81.3276 60.8988 81.7174 60.8988C81.8148 60.8988 81.9123 60.8886 81.9805 60.868C82.3996 60.786 82.6919 60.4577 82.6919 60.0678C82.6919 59.9755 82.6725 59.8729 82.6433 59.7805C82.4289 59.0932 81.8246 58.0159 80.1581 57.7697V56.6001C80.1581 55.6255 78.6184 55.6255 78.6184 56.6001V57.78C76.8253 58.057 76.1626 59.2676 76.1626 60.3243C76.1626 62.2428 77.5074 62.7763 78.823 63.0533L79.6904 63.238C80.928 63.4842 81.1424 63.8125 81.1424 64.387C81.1424 65.0949 80.5382 65.5156 79.5247 65.5156C78.2091 65.5156 77.946 64.9308 77.7608 64.2742C77.6536 63.9048 77.3223 63.6791 76.913 63.6791C76.8253 63.6791 76.7473 63.6894 76.6694 63.7099H76.6401C76.2211 63.8125 75.9287 64.1408 75.9287 64.5307C75.9287 64.6025 75.9385 64.664 75.9482 64.7153L75.958 64.7769C76.1529 65.413 76.5718 66.8082 78.6671 67.1263V68.3574C78.6671 68.8499 79.0569 69.1064 79.437 69.1064C79.8171 69.1064 80.2069 68.8499 80.2069 68.3574V67.1468C81.8831 66.9211 82.9648 65.8644 82.9648 64.3665Z" fill="#FFC240"/><path d="M72.3627 43.4885H20.9951C20.9951 43.4885 20.9951 16.455 46.674 16.455C72.3627 16.455 72.3627 43.4885 72.3627 43.4885Z" fill="white" stroke="black" stroke-width="3" stroke-miterlimit="10" stroke-linecap="round" stroke-linejoin="round"/><path d="M79.3012 16.2292L45.6505 4L12 16.2292L45.6505 29.9768L79.3012 16.2292L79.4474 46.2585L79.3012 16.2292Z" fill="white"/><path d="M79.3012 16.2292L45.6505 4L12 16.2292L45.6505 29.9768L79.3012 16.2292ZM79.3012 16.2292L79.4474 46.2585" stroke="black" stroke-width="3" stroke-miterlimit="10" stroke-linecap="round" stroke-linejoin="round"/></g><defs><clipPath id="clip0_1:1018"><rect width="100" height="75" fill="white"/></clipPath></defs></svg>